<svg xmlns="http://www.w3.org/2000/svg" viewBox="0 0 22 22"><path fill="#fff" d="M18 4H4a2 2 0 0 0-2 2v10a2 2 0 0 0 2 2h14a2 2 0 0 0 2-2V6a2 2 0 0 0-2-2zM8 15.5a.5.5 0 0 1-.5.5h-1a.5.5 0 0 1-.5-.5V14H4.5a.5.5 0 0 1-.5-.5v-1a.5.5 0 0 1 .5-.5h3a.5.5 0 0 1 .5.5v3zm0-6a.5.5 0 0 1-.5.5h-3a.5.5 0 0 1-.5-.5v-1a.5.5 0 0 1 .5-.5H6V6.5a.5.5 0 0 1 .5-.5h1a.5.5 0 0 1 .5.5v3zm10 4a.5.5 0 0 1-.5.5H16v1.5a.5.5 0 0 1-.5.5h-1a.5.5 0 0 1-.5-.5v-3a.5.5 0 0 1 .5-.5h3a.5.5 0 0 1 .5.5v1zm0-4a.5.5 0 0 1-.5.5h-3a.5.5 0 0 1-.5-.5v-3a.5.5 0 0 1 .5-.5h1a.5.5 0 0 1 .5.5V8h1.5a.5.5 0 0 1 .5.5v1z"></path></svg>